<svg width="24.000000" height="24.000000" viewBox="0 0 24 24" fill="none" xmlns="http://www.w3.org/2000/svg" xmlns:xlink="http://www.w3.org/1999/xlink">
	<desc>
			Created with Pixso.
	</desc>
	<defs/>
	<path id="Icon" d="M15.02 3.34C15.53 3.25 16.09 3.22 16.63 3.31C17.59 3.47 18.47 3.92 19.17 4.59C19.63 4.6 20.07 4.51 20.47 4.38C20.81 4.27 21.09 4.14 21.29 4.04C21.39 3.98 21.47 3.94 21.51 3.91C21.54 3.9 21.56 3.88 21.57 3.88L21.58 3.87C21.87 3.67 22.27 3.71 22.52 3.96C22.78 4.21 22.82 4.61 22.62 4.91C22.41 5.22 22.12 5.79 21.8 6.41C21.75 6.51 21.7 6.61 21.65 6.72C21.46 7.08 21.27 7.44 21.1 7.75C20.98 7.95 20.87 8.15 20.75 8.32L20.75 8.59C20.75 9.6 20.64 10.6 20.41 11.57C20.26 12.18 20.06 12.79 19.82 13.37C19.2 14.89 18.28 16.27 17.12 17.42C15.96 18.58 14.58 19.5 13.06 20.11C11.55 20.73 9.92 21.04 8.28 21.03C5.91 21.03 3.58 20.34 1.59 19.06C1.3 18.87 1.17 18.5 1.29 18.17C1.41 17.84 1.74 17.64 2.09 17.68C2.39 17.72 2.69 17.74 2.99 17.74C4.08 17.73 5.15 17.49 6.12 17.04C5.81 16.9 5.51 16.73 5.24 16.52C4.43 15.92 3.82 15.08 3.51 14.12C3.43 13.87 3.49 13.59 3.66 13.39C3.66 13.39 3.66 13.39 3.67 13.38C3.48 13.22 3.31 13.04 3.16 12.85C2.44 11.99 2.05 10.91 2.05 9.79L2.05 9.79L2.05 9.74C2.05 9.47 2.19 9.22 2.42 9.09C2.47 9.06 2.53 9.03 2.6 9.01C2.26 8.34 2.08 7.59 2.08 6.84C2.08 5.98 2.31 5.14 2.73 4.39C2.86 4.18 3.08 4.04 3.32 4.02C3.57 4 3.81 4.1 3.97 4.29C4.93 5.48 6.13 6.45 7.5 7.14C8.19 7.5 8.93 7.77 9.68 7.97C10.11 8.08 10.54 8.17 10.97 8.22C10.95 7.5 11.1 6.78 11.4 6.11C11.83 5.13 12.59 4.32 13.53 3.82C13.94 3.6 14.47 3.43 15.02 3.34ZM3.74 10.89C3.87 11.25 4.06 11.59 4.31 11.9C4.8 12.49 5.48 12.9 6.24 13.05C6.58 13.12 6.83 13.41 6.84 13.75C6.86 14.09 6.64 14.4 6.32 14.5C6.04 14.59 5.76 14.64 5.48 14.68C5.67 14.92 5.89 15.13 6.13 15.32C6.69 15.73 7.37 15.96 8.07 15.98C8.39 15.98 8.67 16.19 8.76 16.49C8.87 16.79 8.77 17.12 8.52 17.32C7.47 18.14 6.26 18.72 4.97 19.01C6.04 19.35 7.16 19.53 8.28 19.53L8.29 19.53C9.73 19.54 11.16 19.27 12.5 18.73C13.83 18.18 15.04 17.38 16.06 16.36C17.08 15.34 17.89 14.13 18.43 12.8C18.64 12.29 18.82 11.76 18.94 11.22C19.15 10.37 19.25 9.49 19.25 8.6L19.25 8.6L19.25 8.07C19.25 7.88 19.31 7.71 19.43 7.57C19.5 7.49 19.62 7.31 19.79 7.01C19.95 6.73 20.13 6.39 20.32 6.03C20.32 6.01 20.33 5.99 20.35 5.96C19.87 6.07 19.32 6.12 18.75 6.06C18.57 6.04 18.41 5.96 18.28 5.82C17.78 5.28 17.11 4.92 16.38 4.79C16.05 4.74 15.66 4.75 15.27 4.82C14.84 4.89 14.47 5.02 14.24 5.14C13.59 5.49 13.07 6.05 12.76 6.72C12.46 7.4 12.39 8.16 12.57 8.88C12.62 9.11 12.56 9.35 12.41 9.53C12.26 9.72 12.03 9.82 11.8 9.8C10.95 9.76 10.12 9.63 9.31 9.42C8.45 9.2 7.61 8.88 6.82 8.48C5.64 7.88 4.57 7.11 3.65 6.18C3.61 6.39 3.58 6.61 3.58 6.84L3.58 6.84C3.58 7.39 3.72 7.93 3.98 8.42C4.24 8.9 4.61 9.32 5.07 9.62C5.35 9.81 5.47 10.15 5.37 10.47C5.27 10.79 4.97 11 4.64 11C4.33 10.99 4.03 10.95 3.74 10.89Z" fill="#121212" fill-opacity="1.000000" fill-rule="evenodd"/>
</svg>
