<svg width="24.000000" height="24.000000" viewBox="0 0 24 24" fill="none" xmlns="http://www.w3.org/2000/svg" xmlns:xlink="http://www.w3.org/1999/xlink">
	<desc>
			Created with Pixso.
	</desc>
	<defs/>
	<path id="Icon" d="M5.78 14.01C5.83 14.03 5.87 14.04 5.91 14.05C5.96 14.16 6.02 14.31 6.1 14.48C6.27 14.89 6.51 15.46 6.76 16.05C7.26 17.25 7.77 18.49 7.88 18.84C8.02 19.28 8.16 19.58 8.32 19.78C8.41 19.89 8.5 19.98 8.62 20.05C8.67 20.08 8.73 20.11 8.79 20.14C8.8 20.14 8.8 20.14 8.8 20.14C9.12 20.26 9.41 20.21 9.6 20.15C9.69 20.11 9.77 20.07 9.83 20.04C9.85 20.03 9.88 20.01 9.9 20L9.91 19.99L12.73 18.23L16 20.73C16.04 20.77 16.1 20.8 16.15 20.83C16.54 21 16.92 21.06 17.28 21.01C17.64 20.96 17.92 20.81 18.13 20.64C18.34 20.48 18.48 20.29 18.57 20.15C18.61 20.08 18.64 20.02 18.67 19.97C18.68 19.95 18.69 19.93 18.69 19.91L18.71 19.89L18.71 19.88L18.71 19.88L18.71 19.88L18.71 19.88C18.73 19.83 18.74 19.79 18.75 19.74L21.73 4.72C21.74 4.67 21.75 4.62 21.75 4.57C21.75 4.13 21.58 3.71 21.19 3.46C20.85 3.24 20.48 3.23 20.25 3.25C20 3.27 19.76 3.33 19.6 3.38C19.53 3.41 19.46 3.43 19.41 3.45C19.38 3.46 19.36 3.47 19.35 3.48L19.33 3.48L2.62 10.04L2.62 10.04C2.61 10.04 2.6 10.05 2.58 10.05C2.55 10.07 2.5 10.08 2.45 10.11C2.35 10.15 2.21 10.22 2.07 10.32C1.85 10.48 1.32 10.9 1.41 11.6C1.48 12.17 1.87 12.51 2.1 12.68C2.23 12.77 2.35 12.83 2.44 12.87C2.48 12.89 2.57 12.93 2.6 12.94L2.61 12.95L5.78 14.01ZM19.92 4.86L19.92 4.86C19.91 4.87 19.9 4.87 19.89 4.87L3.16 11.44C3.15 11.44 3.14 11.45 3.13 11.45L3.12 11.45C3.11 11.46 3.09 11.46 3.07 11.47C3.06 11.48 3.05 11.49 3.03 11.49C3.05 11.5 3.07 11.51 3.08 11.52C3.1 11.53 3.11 11.53 3.12 11.54L6.26 12.59C6.32 12.61 6.37 12.64 6.42 12.67L16.8 6.59L16.81 6.59C16.82 6.58 16.82 6.58 16.83 6.57C16.86 6.56 16.89 6.54 16.93 6.52C17 6.48 17.12 6.43 17.25 6.39C17.34 6.36 17.6 6.28 17.89 6.38C18.07 6.43 18.26 6.56 18.37 6.76C18.43 6.87 18.47 6.97 18.48 7.06C18.52 7.21 18.51 7.36 18.48 7.49C18.42 7.76 18.22 7.98 18.05 8.14C17.9 8.28 15.95 10.16 14.03 12.01C13.07 12.93 12.13 13.85 11.42 14.53L10.96 14.98L16.83 19.48C16.96 19.53 17.04 19.53 17.08 19.52C17.12 19.52 17.16 19.5 17.19 19.47C17.23 19.44 17.27 19.39 17.3 19.35L17.3 19.35L20.19 4.78C20.15 4.79 20.1 4.8 20.06 4.81C20.01 4.83 19.98 4.84 19.95 4.85C19.94 4.86 19.93 4.86 19.92 4.86L19.92 4.86ZM11.46 17.26L10.29 16.36L10 18.16L11.46 17.26ZM9.21 14.58L10.38 13.45C11.08 12.77 12.03 11.85 12.99 10.93L13.96 9.99L7.44 13.81L7.48 13.89C7.66 14.31 7.89 14.88 8.14 15.47C8.33 15.91 8.52 16.38 8.7 16.81L8.98 15.01C9.01 14.84 9.09 14.69 9.21 14.58Z" fill="#121212" fill-opacity="1.000000" fill-rule="evenodd"/>
</svg>
