<svg width="24.000000" height="24.000000" viewBox="0 0 24 24" fill="none" xmlns="http://www.w3.org/2000/svg" xmlns:xlink="http://www.w3.org/1999/xlink">
	<desc>
			Created with Pixso.
	</desc>
	<defs/>
	<path id="Icon" d="M6.74 2.83C10.21 2.44 13.79 2.44 17.25 2.83C19.26 3.05 20.89 4.64 21.13 6.66C21.54 10.21 21.54 13.79 21.13 17.33C20.89 19.35 19.26 20.94 17.25 21.16C13.79 21.55 10.21 21.55 6.74 21.16C4.73 20.94 3.1 19.35 2.87 17.33C2.45 13.79 2.45 10.21 2.87 6.66C3.1 4.64 4.73 3.05 6.74 2.83ZM17.09 4.32C13.73 3.94 10.26 3.94 6.91 4.32C5.57 4.47 4.51 5.52 4.35 6.83C3.95 10.26 3.95 13.73 4.35 17.16C4.51 18.47 5.57 19.52 6.91 19.67C10.26 20.05 13.73 20.05 17.09 19.67C18.42 19.52 19.48 18.47 19.64 17.16C20.04 13.73 20.04 10.26 19.64 6.83C19.48 5.52 18.42 4.47 17.09 4.32ZM16 7C16 6.44 16.44 6 17 6C17.55 6 18 6.44 18 7C18 7.55 17.55 8 17 8C16.44 8 16 7.55 16 7ZM12 7.25C9.37 7.25 7.25 9.37 7.25 12C7.25 14.62 9.37 16.75 12 16.75C14.62 16.75 16.75 14.62 16.75 12C16.75 9.37 14.62 7.25 12 7.25ZM8.75 12C8.75 10.2 10.2 8.75 12 8.75C13.79 8.75 15.25 10.2 15.25 12C15.25 13.79 13.79 15.25 12 15.25C10.2 15.25 8.75 13.79 8.75 12Z" fill="#121212" fill-opacity="1.000000" fill-rule="evenodd"/>
</svg>
