<svg width="24.000000" height="24.000000" viewBox="0 0 24 24" fill="none" xmlns="http://www.w3.org/2000/svg" xmlns:xlink="http://www.w3.org/1999/xlink">
	<desc>
			Created with Pixso.
	</desc>
	<defs/>
	<path id="Icon" d="M12 2.25C6.61 2.25 2.25 6.61 2.25 12C2.25 17.38 6.61 21.75 12 21.75C17.38 21.75 21.75 17.38 21.75 12C21.75 6.61 17.38 2.25 12 2.25ZM3.75 12C3.75 7.44 7.44 3.75 12 3.75C16.55 3.75 20.25 7.44 20.25 12C20.25 16.55 16.55 20.25 12 20.25C11.14 20.25 10.31 20.11 9.53 19.87C9.96 19.21 10.29 18.49 10.53 17.74L11.05 15.77C11.26 16.07 11.55 16.32 11.88 16.48C12.21 16.65 12.58 16.73 12.96 16.72C15.49 16.72 17.27 14.41 17.27 11.55C17.27 8.8 15.03 6.75 12.15 6.75C8.56 6.75 6.66 9.16 6.66 11.78C6.66 13 7.3 14.51 8.34 15C8.5 15.07 8.6 15 8.62 14.89C8.65 14.78 8.79 14.21 8.85 13.94C8.86 13.9 8.86 13.86 8.85 13.82C8.84 13.78 8.82 13.74 8.8 13.71C8.4 13.15 8.19 12.49 8.2 11.81C8.2 11.33 8.3 10.84 8.48 10.4C8.67 9.95 8.95 9.54 9.3 9.2C9.66 8.87 10.07 8.6 10.53 8.43C10.98 8.26 11.47 8.18 11.95 8.2C12.41 8.18 12.87 8.24 13.29 8.4C13.72 8.56 14.11 8.81 14.44 9.13C14.76 9.45 15.02 9.83 15.19 10.25C15.36 10.68 15.44 11.13 15.42 11.59C15.42 13.83 14.29 15.39 12.82 15.39C12.62 15.41 12.43 15.38 12.26 15.3C12.08 15.23 11.93 15.11 11.8 14.96C11.68 14.82 11.6 14.64 11.56 14.45C11.52 14.27 11.53 14.07 11.58 13.89C11.66 13.54 11.78 13.18 11.88 12.83C12.08 12.19 12.27 11.58 12.27 11.12C12.29 10.97 12.28 10.82 12.23 10.68C12.19 10.53 12.12 10.4 12.01 10.29C11.92 10.18 11.79 10.09 11.66 10.03C11.51 9.96 11.37 9.93 11.22 9.94C10.39 9.94 9.71 10.8 9.71 11.96C9.71 12.36 9.78 12.77 9.94 13.14L8.96 17.3C8.84 18.08 8.84 18.88 8.96 19.67C8.31 19.41 7.7 19.07 7.14 18.67C6.16 17.95 5.35 17.03 4.76 15.95C4.53 15.53 4.33 15.09 4.18 14.64C3.9 13.81 3.75 12.92 3.75 12Z" fill="#121212" fill-opacity="1.000000" fill-rule="evenodd"/>
</svg>
