<svg width="24.000000" height="24.000000" viewBox="0 0 24 24" fill="none" xmlns="http://www.w3.org/2000/svg" xmlns:xlink="http://www.w3.org/1999/xlink">
	<desc>
			Created with Pixso.
	</desc>
	<defs/>
	<path id="Icon" d="M10.48 3.78C11.47 2.8 12.8 2.25 14.19 2.25L16.89 2.25C17.31 2.25 17.64 2.58 17.64 3L17.64 6.6C17.64 7.01 17.31 7.35 16.89 7.35L14.19 7.35C14.16 7.35 14.12 7.36 14.09 7.39C14.06 7.42 14.05 7.46 14.05 7.5L14.05 9.45L16.89 9.45C17.13 9.45 17.34 9.55 17.49 9.73C17.63 9.92 17.68 10.15 17.62 10.38L16.72 13.98C16.64 14.31 16.34 14.54 16 14.54L14.05 14.54L14.05 21C14.05 21.41 13.71 21.75 13.3 21.75L9.69 21.75C9.28 21.75 8.94 21.41 8.94 21L8.94 14.54L7 14.54C6.58 14.54 6.25 14.21 6.25 13.79L6.25 10.2C6.25 9.78 6.58 9.45 7 9.45L8.94 9.45L8.94 7.5C8.94 6.1 9.5 4.77 10.48 3.78ZM14.19 3.75C13.2 3.75 12.25 4.14 11.54 4.84C10.84 5.55 10.44 6.5 10.44 7.5L10.44 10.2C10.44 10.61 10.11 10.95 9.69 10.95L7.75 10.95L7.75 13.04L9.69 13.04C10.11 13.04 10.44 13.38 10.44 13.79L10.44 20.25L12.55 20.25L12.55 13.79C12.55 13.38 12.88 13.04 13.3 13.04L15.41 13.04L15.93 10.95L13.3 10.95C12.88 10.95 12.55 10.61 12.55 10.2L12.55 7.5C12.55 7.06 12.72 6.64 13.03 6.33C13.34 6.02 13.76 5.85 14.19 5.85L16.14 5.85L16.14 3.75L14.19 3.75Z" fill="#121212" fill-opacity="1.000000" fill-rule="evenodd"/>
</svg>
