<svg width="24.000000" height="24.000000" viewBox="0 0 24 24" fill="none" xmlns="http://www.w3.org/2000/svg" xmlns:xlink="http://www.w3.org/1999/xlink">
	<desc>
			Created with Pixso.
	</desc>
	<defs>
		<clipPath id="clip16_3511">
			<rect id="call" width="24.000000" height="24.000000" fill="white" fill-opacity="0"/>
		</clipPath>
	</defs>
	<rect id="call" width="24.000000" height="24.000000" fill="#FFFFFF" fill-opacity="0"/>
	<g clip-path="url(#clip16_3511)">
		<path id="Vector" d="M19.94 21C17.8 21 15.7 20.52 13.66 19.56C11.62 18.6 9.81 17.33 8.23 15.76C6.66 14.18 5.39 12.37 4.43 10.33C3.48 8.29 3 6.2 3 4.04C3 3.75 3.1 3.5 3.3 3.29C3.5 3.1 3.75 3 4.05 3L8.1 3C8.33 3 8.54 3.07 8.72 3.22C8.91 3.37 9.01 3.56 9.05 3.79L9.69 7.29C9.73 7.53 9.73 7.74 9.68 7.93C9.64 8.12 9.55 8.29 9.39 8.45L6.97 10.89C7.67 12.1 8.55 13.22 9.61 14.27C10.67 15.32 11.83 16.23 13.1 17L15.44 14.64C15.6 14.5 15.79 14.38 16.03 14.31C16.28 14.23 16.51 14.21 16.75 14.25L20.19 14.95C20.43 15 20.62 15.11 20.77 15.28C20.92 15.46 21 15.66 21 15.89L21 19.95C21 20.25 20.89 20.5 20.69 20.7C20.5 20.89 20.25 21 19.94 21ZM6.02 9L7.67 7.35L7.25 5L5.02 5C5.1 5.68 5.22 6.35 5.37 7.02C5.52 7.69 5.74 8.35 6.02 9ZM14.97 17.95C15.62 18.23 16.28 18.45 16.96 18.62C17.63 18.79 18.31 18.89 19 18.95L19 16.75L16.64 16.27L14.97 17.95Z" fill="#000000" fill-opacity="1.000000" fill-rule="nonzero"/>
	</g>
</svg>
