<svg width="77.000000" height="28.000000" viewBox="0 0 77 28" fill="none" xmlns="http://www.w3.org/2000/svg" xmlns:xlink="http://www.w3.org/1999/xlink">
	<desc>
			Created with Pixso.
	</desc>
	<defs>
		<clipPath id="clip753_3906">
			<rect id="google logo" width="77.000000" height="28.000000" fill="white" fill-opacity="0"/>
		</clipPath>
	</defs>
	<rect id="google logo" width="77.000000" height="28.000000" fill="#FFFFFF" fill-opacity="0"/>
	<g clip-path="url(#clip753_3906)">
		<path id="Vector" d="M10.93 12.26L10.93 9.67L19.85 9.67C19.94 10.13 20 10.67 20 11.26C20 13.21 19.45 15.61 17.69 17.33C15.98 19.07 13.79 20 10.89 20C5.51 20 1 15.73 1 10.5C1 5.26 5.51 1 10.89 1C13.86 1 15.98 2.13 17.57 3.61L15.69 5.44C14.55 4.4 13 3.59 10.89 3.59C6.96 3.59 3.9 6.67 3.9 10.5C3.9 14.32 6.96 17.4 10.89 17.4C13.43 17.4 14.88 16.41 15.81 15.5C16.57 14.76 17.07 13.71 17.26 12.26L10.93 12.26Z" fill="#4285F4" fill-opacity="1.000000" fill-rule="nonzero"/>
		<path id="Vector" d="M33.5 14C33.5 17.45 30.8 20 27.5 20C24.19 20 21.5 17.45 21.5 14C21.5 10.52 24.19 8 27.5 8C30.8 8 33.5 10.52 33.5 14ZM30.87 14C30.87 11.84 29.31 10.36 27.5 10.36C25.68 10.36 24.12 11.84 24.12 14C24.12 16.13 25.68 17.63 27.5 17.63C29.31 17.63 30.87 16.13 30.87 14Z" fill="#EA4335" fill-opacity="1.000000" fill-rule="nonzero"/>
		<path id="Vector" d="M46.5 14C46.5 17.45 43.8 20 40.5 20C37.19 20 34.5 17.45 34.5 14C34.5 10.52 37.19 8 40.5 8C43.8 8 46.5 10.52 46.5 14ZM43.87 14C43.87 11.84 42.31 10.36 40.5 10.36C38.68 10.36 37.12 11.84 37.12 14C37.12 16.13 38.68 17.63 40.5 17.63C42.31 17.63 43.87 16.13 43.87 14Z" fill="#FBBC05" fill-opacity="1.000000" fill-rule="nonzero"/>
		<path id="Vector" d="M59.5 8.37L59.5 19.53C59.5 24.11 56.77 26 53.54 26C50.51 26 48.68 23.97 48 22.32L50.39 21.34C50.82 22.35 51.86 23.55 53.54 23.55C55.6 23.55 56.89 22.28 56.89 19.9L56.89 19.01L56.79 19.01C56.17 19.76 54.99 20.42 53.5 20.42C50.37 20.42 47.5 17.71 47.5 14.23C47.5 10.72 50.37 8 53.5 8C54.99 8 56.17 8.65 56.79 9.38L56.89 9.38L56.89 8.37L59.5 8.37L59.5 8.37ZM57.08 14.23C57.08 12.04 55.6 10.44 53.73 10.44C51.83 10.44 50.25 12.04 50.25 14.23C50.25 16.4 51.83 17.97 53.73 17.97C55.6 17.97 57.08 16.4 57.08 14.23Z" fill="#4285F4" fill-opacity="1.000000" fill-rule="nonzero"/>
		<path id="Vector" d="M63.5 2L63.5 20L60.5 20L60.5 2L63.5 2Z" fill="#34A853" fill-opacity="1.000000" fill-rule="nonzero"/>
		<path id="Vector" d="M73.35 15.97L75.38 17.34C74.73 18.31 73.15 20 70.41 20C67.03 20 64.5 17.36 64.5 14C64.5 10.43 67.05 8 70.12 8C73.21 8 74.73 10.47 75.22 11.81L75.5 12.49L67.52 15.81C68.13 17.02 69.08 17.63 70.41 17.63C71.75 17.63 72.67 16.97 73.35 15.97ZM67.09 13.81L72.42 11.59C72.13 10.84 71.25 10.31 70.21 10.31C68.88 10.31 67.03 11.49 67.09 13.81Z" fill="#EA4335" fill-opacity="1.000000" fill-rule="nonzero"/>
	</g>
</svg>
