<svg width="24.000000" height="24.000000" viewBox="0 0 24 24" fill="none" xmlns="http://www.w3.org/2000/svg" xmlns:xlink="http://www.w3.org/1999/xlink">
	<desc>
			Created with Pixso.
	</desc>
	<defs>
		<clipPath id="clip16_3506">
			<rect id="pin_drop" width="24.000000" height="24.000000" fill="white" fill-opacity="0"/>
		</clipPath>
	</defs>
	<rect id="pin_drop" width="24.000000" height="24.000000" fill="#FFFFFF" fill-opacity="0"/>
	<g clip-path="url(#clip16_3506)">
		<path id="Vector" d="M12 16.47C13.64 15.14 14.89 13.85 15.73 12.62C16.57 11.39 17 10.23 17 9.14C17 8.21 16.82 7.42 16.48 6.76C16.14 6.1 15.72 5.57 15.22 5.16C14.72 4.75 14.18 4.45 13.6 4.27C13.01 4.09 12.48 4 12 4C11.51 4 10.98 4.09 10.39 4.27C9.81 4.45 9.27 4.75 8.77 5.16C8.27 5.57 7.85 6.1 7.51 6.76C7.17 7.42 7 8.21 7 9.14C7 10.23 7.42 11.39 8.26 12.62C9.1 13.85 10.35 15.14 12 16.47ZM12 19C9.64 17.26 7.89 15.58 6.73 13.95C5.57 12.31 5 10.71 5 9.14C5 7.96 5.21 6.92 5.63 6.03C6.06 5.14 6.6 4.39 7.27 3.79C7.94 3.2 8.69 2.75 9.52 2.45C10.35 2.14 11.18 2 12 2C12.81 2 13.64 2.14 14.47 2.45C15.3 2.75 16.05 3.2 16.72 3.79C17.39 4.39 17.93 5.14 18.36 6.03C18.78 6.92 19 7.96 19 9.14C19 10.71 18.42 12.31 17.26 13.95C16.1 15.58 14.35 17.26 12 19ZM12 11C12.55 11 13.01 10.8 13.41 10.41C13.8 10.02 14 9.54 14 9C14 8.45 13.8 7.97 13.41 7.58C13.01 7.19 12.55 7 12 7C11.44 7 10.98 7.19 10.58 7.58C10.19 7.97 10 8.45 10 9C10 9.54 10.19 10.02 10.58 10.41C10.98 10.8 11.44 11 12 11ZM5 22L5 20L19 20L19 22L5 22Z" fill="#000000" fill-opacity="1.000000" fill-rule="nonzero"/>
	</g>
</svg>
